<mxfile host="app.diagrams.net" modified="2022-10-01T14:57:28.387Z" agent="5.0 (X11)" etag="Lieg3IinNoNsLGTUvEVw" version="20.4.0" type="github">
  <diagram id="SED6HNJ5tajuQdakCnzl" name="Seite-1">
    <mxGraphModel dx="1038" dy="604" grid="1" gridSize="10" guides="1" tooltips="1" connect="1" arrows="1" fold="1" page="1" pageScale="1" pageWidth="827" pageHeight="1169" math="0" shadow="0">
      <root>
        <mxCell id="0" />
        <mxCell id="1" parent="0" />
        <mxCell id="E0oruXAGNCEqF79hcxzy-1" value="" style="whiteSpace=wrap;html=1;aspect=fixed;" parent="1" vertex="1">
          <mxGeometry x="180" y="180" width="80" height="80" as="geometry" />
        </mxCell>
        <mxCell id="E0oruXAGNCEqF79hcxzy-2" value="" style="whiteSpace=wrap;html=1;aspect=fixed;" parent="1" vertex="1">
          <mxGeometry x="240" y="220" width="80" height="80" as="geometry" />
        </mxCell>
        <mxCell id="pmou3NTElBmXK00lUW3o-1" value="" style="whiteSpace=wrap;html=1;aspect=fixed;" vertex="1" parent="1">
          <mxGeometry x="280" y="180" width="80" height="80" as="geometry" />
        </mxCell>
      </root>
    </mxGraphModel>
  </diagram>
</mxfile>
